<?xml version="1.0" encoding="UTF-8"?>
<svg xmlns="http://www.w3.org/2000/svg" id="Layer_1" data-name="Layer 1" viewBox="0 0 305.16 195.6">
  <defs>
    <style>
      .cls-1 {
        fill: #14a74a;
      }

      .cls-1, .cls-2 {
        stroke-width: 0px;
      }

      .cls-2 {
        fill: #0e301b;
      }
    </style>
  </defs>
  <path class="cls-1" d="M292.2,60.1c7.1-2.6,12.2-9.3,12.2-17.3,0-10.2-8.3-18.4-18.4-18.4s-18.4,8.3-18.4,18.4c0,.4,0,.8.1,1.3-4.6-1.4-9.5-2.1-14.6-2.1-28.3,0-51.4,23-51.4,51.4s22.7,51,50.7,51.4l-35.7,35.8c20.1,20,52.6,20,72.6-.1,16.6-16.7,19.4-42.1,8.3-61.6,4.3-7.5,6.7-16.2,6.7-25.4.1-12.9-4.5-24.5-12.1-33.4ZM222.2,93.3c0-16.9,13.8-30.7,30.7-30.7s30.7,13.8,30.7,30.7-13.8,30.7-30.7,30.7-30.7-13.8-30.7-30.7Z"></path>
  <polygon class="cls-2" points="149.7 105.7 137.4 118 137.4 142.4 115.6 142.4 115.6 0 137.4 0 137.4 91 184.3 44.1 211.3 44.1 165.2 90.3 217.3 142.4 186.4 142.4 149.7 105.7"></polygon>
  <path class="cls-2" d="M82,44v7.9c-8.6-6.3-19.2-10.1-30.6-10.1C23,41.8,0,64.9,0,93.2s23.1,51.4,51.4,51.4c11.5,0,22-3.7,30.6-10.1v7.9h21.9V44.1l-21.9-.1ZM51.3,124c-16.9,0-30.7-13.8-30.7-30.7s13.8-30.7,30.7-30.7,30.7,13.7,30.7,30.7-13.7,30.7-30.7,30.7Z"></path>
  <path class="cls-2" d="M286,61.2c2.2,0,4.3-.4,6.2-1.1-6.4-7.5-14.9-13.2-24.6-16.1.6,9.6,8.6,17.2,18.4,17.2Z"></path>
  <path class="cls-2" d="M289.3,107.7c3.3,3.3,6.1,7,8.3,10.9-8.8,15.5-25.6,26-44.7,26h-.6l37-36.9Z"></path>
</svg>
