<?xml version="1.0" encoding="utf-8"?>
<!-- Generator: Adobe Illustrator 24.0.1, SVG Export Plug-In . SVG Version: 6.00 Build 0)  -->
<svg version="1.1" id="コーポレート" xmlns="http://www.w3.org/2000/svg" xmlns:xlink="http://www.w3.org/1999/xlink" x="0px"
	 y="0px" viewBox="0 0 412 236" style="enable-background:new 0 0 412 236;" xml:space="preserve">
<style type="text/css">
	.st0{fill:#98989A;}
</style>
<title>logo_persol</title>
<g id="レイヤー_30">
	<polygon class="st0" points="72.4,83 50.9,83 50.9,122.9 35.6,122.9 37.4,144.4 72.4,144.4 	"/>
	<polygon class="st0" points="46,83 11,83 11,162.8 32.5,162.8 32.5,104.5 47.8,104.5 	"/>
	<path class="st0" d="M332.3,92.5c-11.7,0.1-21.1,9.7-21,21.4c0.1,11.7,9.7,21.1,21.4,21c11.6-0.1,21-9.6,21-21.2
		C353.7,101.9,344.1,92.5,332.3,92.5C332.3,92.5,332.3,92.5,332.3,92.5z M332.3,128.2c-8,0.3-14.8-5.9-15.1-13.9
		c-0.3-8,5.9-14.8,13.9-15.1c8-0.3,14.8,5.9,15.1,13.9c0,0.2,0,0.4,0,0.6C346.4,121.6,340.2,128.1,332.3,128.2z"/>
	<polygon class="st0" points="158.7,116.8 179.2,116.8 179.2,110.2 158.7,110.2 158.7,99.7 181.6,99.7 181.6,93.2 151.3,93.2 
		151.3,134.2 182,134.2 182,127.7 158.7,127.7 	"/>
	<polygon class="st0" points="382.7,127.6 382.7,93.2 375.4,93.2 375.4,134.2 404,134.2 404,127.6 	"/>
	<path class="st0" d="M115.1,93.2H99v40.9h7.4v-13h8.8c8.9,0,15.3-6.2,15.3-13.9S125.8,93.2,115.1,93.2z M114.6,114.5h-8.2V99.8h8.2
		c6.1,0,8.8,3.3,8.8,7.4S120.1,114.5,114.6,114.5z"/>
	<path class="st0" d="M238.9,107.2c0-7.7-4.7-13.9-15.3-13.9h-16.2v40.9h7.4v-13h8l9.2,13h8.6l-10.1-14.4
		C235.5,117.6,238.8,112.7,238.9,107.2z M222.9,114.5h-8.2V99.8h8.2c6.1,0,8.8,3.3,8.8,7.4S228.6,114.5,222.9,114.5z"/>
	<path class="st0" d="M287,113.3c-2.6-1.7-5.7-2.5-9.6-3.5c-7-1.8-8.1-3-8.1-5.3c0-3.5,3.4-5.1,6.8-5.1c4,0.1,7.9,1.5,11.2,3.8
		c1.3,0.9,2.5,1.9,3.5,3v-9c-4.3-3-9.5-4.6-14.7-4.7c-8,0-13.8,5.1-13.8,12.1c0,8.7,8.4,10.8,13.3,12.1c7.8,1.9,9.5,3.1,9.5,6.3
		c0.1,1.4-0.6,2.8-1.9,3.5c-2,1-4.2,1.5-6.4,1.4c-5.9,0-12.4-4.3-14.3-6.2v8.6l0.4,0.2c2.7,1.6,8.1,4.3,14,4.3
		c9.4,0,15.2-4.5,15.2-11.9C292.3,119,290.3,115.3,287,113.3z"/>
</g>
</svg>
